<svg width="14" height="14" viewBox="0 0 14 14" fill="none" xmlns="http://www.w3.org/2000/svg">
<path d="M3.22929 12.7667C3.32366 12.8158 3.4296 12.8383 3.53577 12.8317C3.64193 12.8251 3.74429 12.7897 3.83188 12.7294L11.4152 7.47938C11.4927 7.4257 11.556 7.35403 11.5998 7.27053C11.6435 7.18702 11.6663 7.09415 11.6663 6.99988C11.6663 6.90562 11.6435 6.81275 11.5998 6.72924C11.556 6.64573 11.4927 6.57407 11.4152 6.52038L3.83188 1.27038C3.74436 1.20983 3.64195 1.17437 3.53573 1.16785C3.4295 1.16132 3.32352 1.18398 3.22925 1.23337C3.13498 1.28275 3.05602 1.35699 3.00092 1.44803C2.94581 1.53908 2.91666 1.64346 2.91663 1.74988V12.2499C2.91661 12.3564 2.94574 12.4608 3.00085 12.5519C3.05597 12.643 3.13497 12.7173 3.22929 12.7667Z" fill="white"/>
</svg>
