<svg aria-hidden="true" style="width:0;height:0;position:absolute;overflow:hidden" xmlns="http://www.w3.org/2000/svg"><defs><symbol id="icon-facebook" viewBox="0 0 32 32"><path fill="#fff" style="fill:var(--color1,#fff)" d="M30.4 16c0 7.953-6.268 14.4-14 14.4s-14-6.447-14-14.4 6.268-14.4 14-14.4 14 6.447 14 14.4z"/><path d="M16 .8C7.605.8.8 7.605.8 16S7.605 31.2 16 31.2 31.2 24.395 31.2 16 24.395.8 16 .8zm3.6 10.504h-2.285c-.271 0-.572.356-.572.83v1.65h2.858l-.432 2.353h-2.426V23.2h-2.696v-7.063h-2.446v-2.353h2.446V12.4c0-1.986 1.378-3.599 3.268-3.599H19.6v2.503z"/></symbol><symbol id="icon-facebook-hover" viewBox="0 0 32 32"><path stroke-width=".8" d="M19.6 11.704h.4V8.401h-2.685c-2.153 0-3.668 1.837-3.668 3.999v.984h-2.446v3.153h2.446V23.6h3.496v-7.063h2.359l.06-.328.519-2.825h-2.938v-1.25c0-.153.049-.277.106-.355.041-.056.071-.071.078-.074h2.272zM1.2 16C1.2 7.826 7.826 1.2 16 1.2S30.8 7.826 30.8 16 24.174 30.8 16 30.8 1.2 24.174 1.2 16z"/></symbol></defs></svg>