<svg aria-hidden="true" style="width:0;height:0;position:absolute;overflow:hidden" xmlns="http://www.w3.org/2000/svg"><defs><symbol id="icon-apple" viewBox="0 0 32 32"><path d="M32 16c0 8.837-7.163 16-16 16S0 24.837 0 16 7.163 0 16 0s16 7.163 16 16z"/><path d="M19.884 10.667c-1.68 0-2.39.807-3.561.807-1.2 0-2.115-.802-3.571-.802-1.425 0-2.945.876-3.91 2.369-1.355 2.105-1.125 6.069 1.07 9.446.785 1.209 1.834 2.565 3.209 2.579h.025c1.195 0 1.55-.788 3.195-.797h.025c1.62 0 1.945.793 3.136.793h.025c1.375-.015 2.48-1.517 3.265-2.721.565-.866.775-1.301 1.209-2.281-3.175-1.214-3.685-5.746-.545-7.483-.959-1.208-2.305-1.908-3.575-1.908l.004-.002zM19.699 6.4c-.967.065-2.096.67-2.757 1.459-.6.716-1.093 1.778-.9 2.807h.077c1.03 0 2.085-.609 2.7-1.39.593-.743 1.043-1.796.879-2.877z"/></symbol><symbol id="icon-author" viewBox="0 0 32 32"><path d="M26.749 24.93a13.99 13.99 0 1 0-24.748-8.932 13.902 13.902 0 0 0 3.251 8.93l-.02.017c.07.084.15.156.222.239.09.103.187.2.28.3.28.304.568.596.87.87.092.084.187.162.28.242.32.276.649.538.99.782.044.03.084.069.128.1v-.012a13.902 13.902 0 0 0 16 0v.012c.044-.031.083-.07.128-.1.34-.245.67-.506.99-.782.093-.08.188-.159.28-.242.302-.275.59-.566.87-.87.093-.1.189-.197.28-.3.071-.083.152-.155.222-.24l-.022-.016zM16 8a4.503 4.503 0 0 1 4.157 2.778 4.502 4.502 0 0 1-3.28 6.136 4.502 4.502 0 0 1-5.378-4.413 4.5 4.5 0 0 1 4.5-4.5zM8.007 24.93A4.995 4.995 0 0 1 13 20h6a4.998 4.998 0 0 1 4.993 4.93 11.942 11.942 0 0 1-15.986 0z"/></symbol><symbol id="icon-data" viewBox="0 0 32 32"><path d="M28 26.667V8a2.67 2.67 0 0 0-2.667-2.667h-2.667V2.666h-2.667v2.667h-8V2.666H9.332v2.667H6.665A2.67 2.67 0 0 0 3.998 8v18.667a2.67 2.67 0 0 0 2.667 2.667h18.667a2.67 2.67 0 0 0 2.667-2.667zM12 24H9.333v-2.667H12V24zm0-5.333H9.333V16H12v2.667zM17.333 24h-2.667v-2.667h2.667V24zm0-5.333h-2.667V16h2.667v2.667zM22.667 24H20v-2.667h2.667V24zm0-5.333H20V16h2.667v2.667zM25.333 12H6.666V9.333h18.667V12z"/></symbol><symbol id="icon-download" viewBox="0 0 32 32"><path d="M18.013 8.5V0H5.434c-.836 0-1.509.669-1.509 1.5v29c0 .831.673 1.5 1.509 1.5h21.132c.836 0 1.509-.669 1.509-1.5V10h-8.553c-.83 0-1.509-.675-1.509-1.5zm4.808 13.21-6.064 5.981a1.077 1.077 0 0 1-1.512 0L9.181 21.71c-.638-.629-.191-1.71.708-1.71h4.099v-5c0-.553.45-1 1.006-1h2.013c.556 0 1.006.447 1.006 1v5h4.099c.898 0 1.346 1.081.709 1.71zm4.814-15.147L21.478.438A1.515 1.515 0 0 0 20.409 0h-.384v8h8.05v-.381c0-.394-.157-.775-.44-1.056z"/></symbol><symbol id="icon-downloads" viewBox="0 0 32 32"><path d="M13.5 0h5c.831 0 1.5.669 1.5 1.5V12h5.481c1.112 0 1.669 1.344.881 2.131l-9.506 9.513a1.21 1.21 0 0 1-1.706 0l-9.519-9.513C4.844 13.344 5.4 12 6.512 12H12V1.5c0-.831.669-1.5 1.5-1.5zM32 23.5v7c0 .831-.669 1.5-1.5 1.5h-29C.669 32 0 31.331 0 30.5v-7c0-.831.669-1.5 1.5-1.5h9.169l3.062 3.063a3.204 3.204 0 0 0 4.538 0L21.331 22H30.5c.831 0 1.5.669 1.5 1.5zM24.25 29c0-.688-.563-1.25-1.25-1.25s-1.25.563-1.25 1.25c0 .688.563 1.25 1.25 1.25s1.25-.563 1.25-1.25zm4 0c0-.688-.563-1.25-1.25-1.25s-1.25.563-1.25 1.25c0 .688.563 1.25 1.25 1.25s1.25-.563 1.25-1.25z"/></symbol><symbol id="icon-f" viewBox="0 0 32 32"><path d="M30.4 16c0 7.953-6.268 14.4-14 14.4s-14-6.447-14-14.4 6.268-14.4 14-14.4 14 6.447 14 14.4z"/><path d="M16 .8C7.605.8.8 7.605.8 16S7.605 31.2 16 31.2 31.2 24.395 31.2 16 24.395.8 16 .8zm3.6 10.504h-2.285c-.271 0-.572.356-.572.83v1.65h2.858l-.432 2.353h-2.426V23.2h-2.696v-7.063h-2.446v-2.353h2.446V12.4c0-1.986 1.378-3.599 3.268-3.599H19.6v2.503z"/></symbol><symbol id="icon-gear" viewBox="0 0 32 32"><path d="M0 0h32v32H0V0z"/></symbol><symbol id="icon-in" viewBox="0 0 32 32"><path d="M30.4 16c0 7.953-6.268 14.4-14 14.4s-14-6.447-14-14.4 6.268-14.4 14-14.4 14 6.447 14 14.4z"/><path d="M16 .8C7.605.8.8 7.605.8 16S7.605 31.2 16 31.2 31.2 24.395 31.2 16 24.395.8 16 .8zm-3.721 21.5H9.201v-9.905h3.078V22.3zm-1.558-11.121c-.972 0-1.601-.689-1.601-1.541 0-.869.648-1.537 1.64-1.537s1.601.668 1.62 1.537c0 .852-.627 1.541-1.659 1.541zm12.8 11.121h-3.078v-5.489c0-1.278-.446-2.145-1.56-2.145-.85 0-1.355.587-1.579 1.153-.082.201-.103.486-.103.77V22.3h-3.08v-6.745a66.3 66.3 0 0 0-.081-3.16h2.674l.141 1.376h.062c.405-.646 1.398-1.599 3.059-1.599 2.025 0 3.543 1.357 3.543 4.273v5.857z"/></symbol><symbol id="icon-language" viewBox="0 0 32 32"><path d="M16 29.333c-1.822 0-3.544-.35-5.167-1.051s-3.039-1.655-4.249-2.867c-1.212-1.211-2.167-2.627-2.867-4.249s-1.051-3.344-1.051-5.167c0-1.844.35-3.572 1.051-5.183s1.655-3.023 2.867-4.233c1.211-1.212 2.627-2.168 4.249-2.868S14.177 2.666 16 2.666c1.844 0 3.572.35 5.183 1.049a13.536 13.536 0 0 1 7.1 7.101c.7 1.611 1.051 3.338 1.051 5.183 0 1.822-.35 3.544-1.051 5.167s-1.655 3.039-2.867 4.249c-1.211 1.212-2.622 2.167-4.233 2.867S17.845 29.333 16 29.333zm0-2.733c.578-.8 1.078-1.633 1.5-2.5s.767-1.789 1.033-2.767h-5.067c.267.978.611 1.9 1.033 2.767s.922 1.7 1.5 2.5zm-3.466-.533c-.4-.733-.75-1.495-1.049-2.284s-.551-1.605-.751-2.449H6.801c.644 1.111 1.45 2.078 2.416 2.9s2.073 1.433 3.317 1.833zm6.933 0c1.244-.4 2.35-1.011 3.316-1.833s1.773-1.789 2.417-2.9h-3.933c-.2.844-.45 1.661-.749 2.449s-.651 1.551-1.051 2.284zm-13.8-7.4H10.2a17.269 17.269 0 0 1-.2-2.666c0-.467.016-.916.049-1.349s.084-.873.151-1.317H5.667a10.52 10.52 0 0 0-.334 2.666 10.693 10.693 0 0 0 .334 2.666zm7.2 0h6.267c.067-.444.117-.884.151-1.317.033-.433.049-.883.049-1.349s-.016-.916-.049-1.349a18.515 18.515 0 0 0-.151-1.317h-6.267a17.996 17.996 0 0 0-.149 4.015c.034.433.083.873.149 1.317zm8.933 0h4.533a10.52 10.52 0 0 0 .334-2.666 10.693 10.693 0 0 0-.334-2.666H21.8a17.996 17.996 0 0 1 .149 4.015c-.033.434-.083.873-.149 1.317zm-.533-8H25.2c-.644-1.111-1.45-2.078-2.417-2.9s-2.072-1.433-3.316-1.833c.4.733.75 1.494 1.051 2.283s.549 1.606.749 2.451zm-7.8 0h5.067c-.267-.978-.611-1.9-1.033-2.767s-.922-1.7-1.5-2.5c-.578.8-1.078 1.633-1.5 2.5s-.767 1.789-1.033 2.767zm-6.667 0h3.933c.2-.844.45-1.661.751-2.451s.649-1.549 1.049-2.283c-1.244.4-2.35 1.011-3.317 1.833s-1.772 1.789-2.416 2.9z"/></symbol><symbol id="icon-license" viewBox="0 0 32 32"><path d="M11 18.876V17h2v1.876c0 .164.02.327.06.486l.8 3.196-1.86 1.24-1.86-1.24.8-3.196c.04-.159.06-.322.06-.486z"/><path d="M18.586 0H8a4.003 4.003 0 0 0-4 4v24a4.003 4.003 0 0 0 4 4h16a4.003 4.003 0 0 0 4-4V9.414A2 2 0 0 0 27.414 8L20 .586A2 2 0 0 0 18.586 0zM19 7V3l6 6h-4a2 2 0 0 1-2-2zm-8-1V4H9V2h3v2h2v2h-2v2h2v2h-2v2h2v2h-3v-2H9v-2h2V8H9V6h2zm0 9h2a2 2 0 0 1 2 2v1.876l.8 3.198a1.998 1.998 0 0 1-.832 2.148l-1.86 1.24a1.997 1.997 0 0 1-2.218 0l-1.86-1.24a2.005 2.005 0 0 1-.83-2.149l.8-3.198v-1.876a2 2 0 0 1 2-2z"/></symbol><symbol id="icon-name" viewBox="0 0 32 32"><path d="M26.706 9.022c.187.188.294.441.294.706V29a1 1 0 0 1-1 1H6a1 1 0 0 1-1-1V3a1 1 0 0 1 1-1h13.272c.266 0 .522.106.709.294l6.725 6.728zm-2.012 1.166-5.881-5.881v5.881h5.881zM10 15.063a.25.25 0 0 0-.25.25v1.5a.25.25 0 0 0 .25.25h12a.25.25 0 0 0 .25-.25v-1.5a.25.25 0 0 0-.25-.25H10zm0 4.249a.25.25 0 0 0-.25.25v1.5a.25.25 0 0 0 .25.25h5.75a.25.25 0 0 0 .25-.25v-1.5a.25.25 0 0 0-.25-.25H10z"/></symbol><symbol id="icon-oc" viewBox="0 0 32 32"><path d="M28.005 2.672h-24a2.674 2.674 0 0 0-2.666 2.666v16a2.674 2.674 0 0 0 2.666 2.666h9.333v2.667h-2.667v2.667h10.667v-2.667h-2.667v-2.667h9.333a2.674 2.674 0 0 0 2.666-2.666v-16a2.674 2.674 0 0 0-2.666-2.666zM14.341 18.227h-.001l-6.333-6.333 1.887-1.884 4.448 4.448 7.78-7.781 1.887 1.887-9.667 9.664z"/></symbol><symbol id="icon-robot" viewBox="0 0 32 32"><path d="M32 16c0 8.837-7.163 16-16 16S0 24.837 0 16 7.163 0 16 0s16 7.163 16 16z"/><path d="M10.623 20.922c0 .501.425.911.947.911h1.082v2.58c0 .654.545 1.187 1.214 1.187a1.2 1.2 0 0 0 1.214-1.187v-2.582h1.889v2.58c0 .654.545 1.187 1.214 1.187a1.2 1.2 0 0 0 1.214-1.187v-2.58h1.082c.522 0 .947-.409.947-.911v-8.468H10.623v8.47zm7.938-12.858.998-1.393c.058-.081.044-.191-.033-.244-.078-.051-.189-.026-.247.056l-1.036 1.448c-.682-.259-1.443-.403-2.241-.403s-1.558.144-2.241.403l-1.036-1.446c-.058-.081-.169-.109-.247-.056-.078.051-.091.159-.033.244l.998 1.393c-1.587.711-2.698 2.059-2.841 3.634h10.803c-.147-1.577-1.26-2.925-2.845-3.636zm-4.839 2.196c-.118 0-.234-.034-.332-.097s-.175-.153-.22-.259a.56.56 0 0 1 .13-.628.616.616 0 0 1 .919.087.567.567 0 0 1 .101.32c0 .153-.064.299-.176.407s-.264.169-.422.169zm4.632 0c-.118 0-.234-.034-.332-.097s-.175-.153-.22-.259a.56.56 0 0 1 .13-.628.62.62 0 0 1 .652-.125c.109.044.203.117.268.212s.101.206.101.32c0 .153-.064.299-.176.407s-.264.169-.422.169zm4.966 2.158a1.2 1.2 0 0 0-1.214 1.187v4.637c0 .654.545 1.187 1.214 1.187a1.2 1.2 0 0 0 1.214-1.187v-4.639c.002-.656-.54-1.185-1.214-1.185zm-14.64 0a1.2 1.2 0 0 0-1.214 1.187v4.637c0 .654.545 1.187 1.214 1.187a1.2 1.2 0 0 0 1.214-1.187v-4.639c0-.656-.545-1.185-1.214-1.185z"/></symbol><symbol id="icon-size" viewBox="0 0 32 32"><path d="M26.806 25.481a2.666 2.666 0 0 1-2.663 2.518H7.855a2.67 2.67 0 0 1-2.663-2.518L4.155 6.814c-.02-.362.034-.724.158-1.065s.317-.652.567-.915a2.679 2.679 0 0 1 1.936-.835h18.363a2.678 2.678 0 0 1 1.938.834 2.663 2.663 0 0 1 .726 1.981l-1.037 18.667zm-3.977-13.628c.547-.36.684-1.074.235-1.539a9.624 9.624 0 0 0-2.63-1.921 10.165 10.165 0 0 0-4.372-1.058 10.208 10.208 0 0 0-4.407.921 9.698 9.698 0 0 0-2.697 1.837c-.465.451-.353 1.168.181 1.545l2.875 2.031c.533.377 1.285.255 1.838-.097a3.868 3.868 0 0 1 2.008-.59l2.262-2.601a.671.671 0 0 1 .715-.195.678.678 0 0 1 .385.335.67.67 0 0 1-.094.735l-1.755 2.017c.238.098.465.221.677.365.54.369 1.287.513 1.833.153l2.945-1.939z"/></symbol><symbol id="icon-twitter" viewBox="0 0 32 32"><path d="M30.4 16c0 7.953-6.268 14.4-14 14.4s-14-6.447-14-14.4 6.268-14.4 14-14.4 14 6.447 14 14.4z"/><path d="M16 .8C7.605.8.8 7.605.8 16S7.605 31.2 16 31.2 31.2 24.395 31.2 16 24.395.8 16 .8zm6.183 12.451c.006.13.008.26.008.386 0 3.958-3.01 8.52-8.517 8.52a8.443 8.443 0 0 1-4.588-1.346c.233.028.472.04.714.04a6 6 0 0 0 3.718-1.281 3 3 0 0 1-2.796-2.077c.448.085.91.067 1.351-.052a2.996 2.996 0 0 1-2.402-2.935v-.036c.404.223.866.359 1.357.375a2.992 2.992 0 0 1-.926-4 8.504 8.504 0 0 0 6.171 3.13 2.999 2.999 0 0 1 1.501-3.326 2.994 2.994 0 0 1 3.6.595 6.005 6.005 0 0 0 1.9-.727 3.007 3.007 0 0 1-1.316 1.658 6.014 6.014 0 0 0 1.72-.473 6.078 6.078 0 0 1-1.493 1.55z"/></symbol><symbol id="icon-android" viewBox="0 0 60 60"><circle cx="30" cy="30" r="30" fill="transparent"/><path d="M19.918 39.23c0 .94.796 1.707 1.776 1.707h2.03v4.837C23.723 47 24.743 48 25.998 48c1.259 0 2.276-.996 2.276-2.226v-4.841h3.542v4.837c0 1.226 1.021 2.226 2.276 2.226 1.258 0 2.275-.996 2.275-2.226v-4.837h2.03c.98 0 1.775-.767 1.775-1.708V23.347H19.918V39.23Zm14.883-24.11 1.872-2.612c.108-.153.083-.358-.063-.458-.146-.097-.354-.048-.463.104l-1.942 2.716a11.843 11.843 0 0 0-4.2-.755c-1.497 0-2.922.27-4.202.755l-1.942-2.712c-.108-.152-.317-.205-.463-.104-.146.096-.17.297-.062.458l1.871 2.611c-2.976 1.334-5.06 3.861-5.326 6.814h20.255c-.275-2.957-2.363-5.484-5.335-6.818Zm-9.073 4.117a1.15 1.15 0 0 1-.623-.182 1.09 1.09 0 0 1-.413-.485 1.044 1.044 0 0 1-.064-.624c.044-.21.15-.402.307-.554a1.16 1.16 0 0 1 1.222-.234c.205.082.38.22.503.398.123.178.19.387.19.6-.002.287-.12.562-.33.764-.21.203-.495.317-.792.317Zm8.686 0a1.15 1.15 0 0 1-.623-.182 1.09 1.09 0 0 1-.413-.485 1.044 1.044 0 0 1-.064-.624c.043-.21.15-.402.307-.554a1.16 1.16 0 0 1 1.222-.234c.204.082.38.22.503.398.123.178.189.387.189.6-.001.287-.12.562-.33.764-.21.203-.494.317-.791.317Zm9.31 4.046c-1.258 0-2.275.997-2.275 2.226v8.694c0 1.226 1.02 2.226 2.275 2.226 1.26 0 2.276-.996 2.276-2.226v-8.698c.004-1.23-1.013-2.222-2.276-2.222Zm-27.448 0c-1.26 0-2.276.997-2.276 2.226v8.694c0 1.226 1.021 2.226 2.276 2.226 1.258 0 2.275-.996 2.275-2.226v-8.698c0-1.23-1.02-2.222-2.275-2.222Z"/></symbol><symbol id="apple" viewBox="0 0 60 60"><circle cx="30" cy="30" r="30" fill="transparent"/><path d="M37.282 20c-3.15 0-4.482 1.514-6.676 1.514-2.25 0-3.966-1.503-6.696-1.503-2.673 0-5.523 1.643-7.332 4.441-2.542 3.947-2.11 11.38 2.006 17.712C20.056 44.43 22.021 46.972 24.6 47h.047c2.241 0 2.907-1.478 5.991-1.495h.047c3.038 0 3.648 1.486 5.88 1.486h.047c2.578-.027 4.65-2.844 6.122-5.102 1.06-1.624 1.453-2.439 2.266-4.276-5.954-2.276-6.91-10.773-1.022-14.032-1.797-2.265-4.323-3.578-6.704-3.578l.008-.003ZM36.936 12c-1.814.121-3.93 1.255-5.17 2.736-1.124 1.342-2.049 3.333-1.686 5.264h.145c1.932 0 3.909-1.142 5.063-2.606C36.401 16 37.244 14.026 36.936 12Z"/></symbol><symbol id="icon-facebook" viewBox="0 0 40 40"><circle cx="20" cy="20" r="18" fill="transparent"/><path d="M24.5 14.13h-2.855c-.339 0-.715.445-.715 1.037v2.062h3.573l-.54 2.941H20.93V29h-3.37v-8.83h-3.058v-2.94h3.058V15.5c0-2.482 1.722-4.5 4.085-4.5H24.5v3.13Z" fill="#fff"/></symbol><symbol id="icon-facebook-hovered" viewBox="0 0 40 40"><path d="M24.5 14.63h.5V10.5h-3.355c-2.692 0-4.585 2.297-4.585 5v1.23h-3.058v3.94h3.058v8.83h4.37v-8.83h2.949l.075-.41.54-2.94.109-.59H21.43v-1.563c0-.192.062-.347.133-.444a.275.275 0 0 1 .098-.093h2.84ZM1.5 20C1.5 9.783 9.783 1.5 20 1.5S38.5 9.783 38.5 20 30.217 38.5 20 38.5 1.5 30.217 1.5 20Z" fill="#06071b"/><path d="M24.5 14.13h-2.855c-.339 0-.715.445-.715 1.037v2.062h3.573l-.54 2.941H20.93V29h-3.37v-8.83h-3.058v-2.94h3.058V15.5c0-2.482 1.722-4.5 4.085-4.5H24.5v3.13Z" stroke="transparent" stroke-width="2"/></symbol></defs></svg>