<svg aria-hidden="true" style="position:absolute;width:0;height:0;overflow:hidden" xmlns="http://www.w3.org/2000/svg"><defs><symbol id="icon-android" viewBox="0 0 60 60"><circle cx="30" cy="30" r="30" fill="transparent"/><path d="M19.918 39.23c0 .94.796 1.707 1.776 1.707h2.03v4.837C23.723 47 24.743 48 25.998 48c1.259 0 2.276-.996 2.276-2.226v-4.841h3.542v4.837c0 1.226 1.021 2.226 2.276 2.226 1.258 0 2.275-.996 2.275-2.226v-4.837h2.03c.98 0 1.775-.767 1.775-1.708V23.347H19.918V39.23Zm14.883-24.11 1.872-2.612c.108-.153.083-.358-.063-.458-.146-.097-.354-.048-.463.104l-1.942 2.716a11.843 11.843 0 0 0-4.2-.755c-1.497 0-2.922.27-4.202.755l-1.942-2.712c-.108-.152-.317-.205-.463-.104-.146.096-.17.297-.062.458l1.871 2.611c-2.976 1.334-5.06 3.861-5.326 6.814h20.255c-.275-2.957-2.363-5.484-5.335-6.818Zm-9.073 4.117a1.15 1.15 0 0 1-.623-.182 1.09 1.09 0 0 1-.413-.485 1.044 1.044 0 0 1-.064-.624c.044-.21.15-.402.307-.554a1.16 1.16 0 0 1 1.222-.234c.205.082.38.22.503.398.123.178.19.387.19.6-.002.287-.12.562-.33.764-.21.203-.495.317-.792.317Zm8.686 0a1.15 1.15 0 0 1-.623-.182 1.09 1.09 0 0 1-.413-.485 1.044 1.044 0 0 1-.064-.624c.043-.21.15-.402.307-.554a1.16 1.16 0 0 1 1.222-.234c.204.082.38.22.503.398.123.178.189.387.189.6-.001.287-.12.562-.33.764-.21.203-.494.317-.791.317Zm9.31 4.046c-1.258 0-2.275.997-2.275 2.226v8.694c0 1.226 1.02 2.226 2.275 2.226 1.26 0 2.276-.996 2.276-2.226v-8.698c.004-1.23-1.013-2.222-2.276-2.222Zm-27.448 0c-1.26 0-2.276.997-2.276 2.226v8.694c0 1.226 1.021 2.226 2.276 2.226 1.258 0 2.275-.996 2.275-2.226v-8.698c0-1.23-1.02-2.222-2.275-2.222Z"/></symbol><symbol id="apple" viewBox="0 0 60 60"><circle cx="30" cy="30" r="30" fill="transparent"/><path d="M37.282 20c-3.15 0-4.482 1.514-6.676 1.514-2.25 0-3.966-1.503-6.696-1.503-2.673 0-5.523 1.643-7.332 4.441-2.542 3.947-2.11 11.38 2.006 17.712C20.056 44.43 22.021 46.972 24.6 47h.047c2.241 0 2.907-1.478 5.991-1.495h.047c3.038 0 3.648 1.486 5.88 1.486h.047c2.578-.027 4.65-2.844 6.122-5.102 1.06-1.624 1.453-2.439 2.266-4.276-5.954-2.276-6.91-10.773-1.022-14.032-1.797-2.265-4.323-3.578-6.704-3.578l.008-.003ZM36.936 12c-1.814.121-3.93 1.255-5.17 2.736-1.124 1.342-2.049 3.333-1.686 5.264h.145c1.932 0 3.909-1.142 5.063-2.606C36.401 16 37.244 14.026 36.936 12Z"/></symbol><symbol id="icon-facebook" viewBox="0 0 40 40"><circle cx="20" cy="20" r="18" fill="transparent"/><path d="M24.5 14.13h-2.855c-.339 0-.715.445-.715 1.037v2.062h3.573l-.54 2.941H20.93V29h-3.37v-8.83h-3.058v-2.94h3.058V15.5c0-2.482 1.722-4.5 4.085-4.5H24.5v3.13Z" fill="#fff"/></symbol><symbol id="icon-facebook-hovered" viewBox="0 0 40 40"><path d="M24.5 14.63h.5V10.5h-3.355c-2.692 0-4.585 2.297-4.585 5v1.23h-3.058v3.94h3.058v8.83h4.37v-8.83h2.949l.075-.41.54-2.94.109-.59H21.43v-1.563c0-.192.062-.347.133-.444a.275.275 0 0 1 .098-.093h2.84ZM1.5 20C1.5 9.783 9.783 1.5 20 1.5S38.5 9.783 38.5 20 30.217 38.5 20 38.5 1.5 30.217 1.5 20Z" fill="#06071b"/><path d="M24.5 14.13h-2.855c-.339 0-.715.445-.715 1.037v2.062h3.573l-.54 2.941H20.93V29h-3.37v-8.83h-3.058v-2.94h3.058V15.5c0-2.482 1.722-4.5 4.085-4.5H24.5v3.13Z" stroke="transparent" stroke-width="2"/></symbol><symbol id="icon-twitter" viewBox="0 0 40 40"><path d="M20 1C9.506 1 1 9.506 1 20s8.506 19 19 19 19-8.506 19-19S30.494 1 20 1Zm7.729 15.564c.008.163.01.325.01.483 0 4.948-3.763 10.65-10.646 10.65a10.559 10.559 0 0 1-5.736-1.682c.29.035.59.05.893.05a7.495 7.495 0 0 0 4.647-1.602 3.75 3.75 0 0 1-3.495-2.597 3.76 3.76 0 0 0 1.688-.065 3.744 3.744 0 0 1-3.003-3.67v-.045c.505.28 1.083.45 1.696.47a3.74 3.74 0 0 1-1.157-5 10.639 10.639 0 0 0 7.712 3.913 3.743 3.743 0 0 1 6.377-3.414 7.513 7.513 0 0 0 2.375-.909 3.76 3.76 0 0 1-1.644 2.072 7.52 7.52 0 0 0 2.149-.591 7.589 7.589 0 0 1-1.866 1.937Z" fill="transparent" stroke="transparent"/><path d="m27.436 16.159-.22.159.013.27c.008.151.01.304.01.46 0 4.732-3.597 10.149-10.146 10.149h-.001a10.06 10.06 0 0 1-3.727-.71 7.983 7.983 0 0 0 3.84-1.63l1.103-.866-1.402-.028a3.25 3.25 0 0 1-2.695-1.532c.34-.008.68-.058 1.01-.148l-.032-.972a3.245 3.245 0 0 1-2.515-2.437c.347.106.714.169 1.093.18l1.754.058-1.46-.973a3.241 3.241 0 0 1-1.297-3.666 11.142 11.142 0 0 0 7.549 3.495l.665.034-.153-.648a3.242 3.242 0 0 1 5.525-2.958l.19.203.272-.054a8.02 8.02 0 0 0 1.036-.278c-.195.2-.416.377-.66.523l.317.925a8.03 8.03 0 0 0 .587-.093 7.083 7.083 0 0 1-.656.537Z" fill="#fff" stroke="#fff"/></symbol><symbol id="icon-twitter-hovered" viewBox="0 0 40 40"><path d="M20 1C9.506 1 1 9.506 1 20s8.506 19 19 19 19-8.506 19-19S30.494 1 20 1Zm7.729 15.564c.008.163.01.325.01.483 0 4.948-3.763 10.65-10.646 10.65a10.559 10.559 0 0 1-5.736-1.682c.29.035.59.05.893.05a7.495 7.495 0 0 0 4.647-1.602 3.75 3.75 0 0 1-3.495-2.597 3.76 3.76 0 0 0 1.688-.065 3.744 3.744 0 0 1-3.003-3.67v-.045c.505.28 1.083.45 1.696.47a3.74 3.74 0 0 1-1.157-5 10.639 10.639 0 0 0 7.712 3.913 3.743 3.743 0 0 1 6.377-3.414 7.513 7.513 0 0 0 2.375-.909 3.76 3.76 0 0 1-1.644 2.072 7.52 7.52 0 0 0 2.149-.591 7.589 7.589 0 0 1-1.866 1.937Z" stroke="transparent" fill="#06071B"/><path d="m27.436 16.159-.22.159.013.27c.008.151.01.304.01.46 0 4.732-3.597 10.149-10.146 10.149h-.001a10.06 10.06 0 0 1-3.727-.71 7.983 7.983 0 0 0 3.84-1.63l1.103-.866-1.402-.028a3.25 3.25 0 0 1-2.695-1.532c.34-.008.68-.058 1.01-.148l-.032-.972a3.245 3.245 0 0 1-2.515-2.437c.347.106.714.169 1.093.18l1.754.058-1.46-.973a3.241 3.241 0 0 1-1.297-3.666 11.142 11.142 0 0 0 7.549 3.495l.665.034-.153-.648a3.242 3.242 0 0 1 5.525-2.958l.19.203.272-.054a8.02 8.02 0 0 0 1.036-.278c-.195.2-.416.377-.66.523l.317.925a8.03 8.03 0 0 0 .587-.093 7.083 7.083 0 0 1-.656.537Z" stroke="transparent" fill="#06071B"/></symbol><symbol id="icon-linkedin" viewBox="0 0 40 40"><path d="M15.349 28.375h.5V14.993h-4.848v13.382h4.348Zm.627-16.327v-.011c-.015-.659-.254-1.267-.705-1.713-.452-.448-1.083-.698-1.82-.698-.735 0-1.377.25-1.838.693a2.369 2.369 0 0 0-.713 1.729c0 1.34 1.01 2.425 2.502 2.425.76 0 1.408-.255 1.87-.705.46-.45.704-1.063.704-1.72ZM29.4 28.375h.5v-7.82c0-1.907-.497-3.375-1.394-4.373-.902-1.003-2.154-1.47-3.535-1.47-1.607 0-2.768.65-3.516 1.354l-.064-.625-.046-.45h-4.318l.024.524c.052 1.108.1 2.392.1 3.927v8.931h4.85v-7.639c0-.352.03-.62.091-.772l.003-.006c.235-.595.724-1.124 1.508-1.124.544 0 .868.2 1.08.519.235.352.37.908.37 1.662v7.362H29.4ZM1.5 20C1.5 9.783 9.783 1.5 20 1.5S38.5 9.783 38.5 20 30.217 38.5 20 38.5 1.5 30.217 1.5 20Z" fill="transparent" stroke="transparent"/><path d="M28.9 20.554v6.821h-2.847v-6.362c0-.842-.144-1.628-.536-2.217-.415-.622-1.065-.964-1.913-.964-1.34 0-2.113.936-2.437 1.754-.143.35-.165.793-.165 1.148v6.64h-2.85v-7.932c0-1.32-.035-2.455-.078-3.45h2.369l.13 1.27.046.45h.805l.147-.235c.44-.7 1.538-1.765 3.4-1.765 1.15 0 2.113.382 2.793 1.139.684.761 1.137 1.963 1.137 3.703ZM14.85 27.375H12V15.993h2.848v11.382ZM13.4 13.473c-.939 0-1.5-.637-1.5-1.425 0-.416.152-.764.406-1.009.255-.245.638-.413 1.144-.413.504 0 .873.167 1.117.409.245.242.397.592.408 1.018-.002.405-.15.752-.403.999s-.64.421-1.172.421Z" fill="#fff" stroke="#fff"/></symbol><symbol id="icon-linkedin-hovered" viewBox="0 0 40 40"><path d="M15.349 28.375h.5V14.993h-4.848v13.382h4.348Zm.627-16.327v-.011c-.015-.659-.254-1.267-.705-1.713-.452-.448-1.083-.698-1.82-.698-.735 0-1.377.25-1.838.693a2.369 2.369 0 0 0-.713 1.729c0 1.34 1.01 2.425 2.502 2.425.76 0 1.408-.255 1.87-.705.46-.45.704-1.063.704-1.72ZM29.4 28.375h.5v-7.82c0-1.907-.497-3.375-1.394-4.373-.902-1.003-2.154-1.47-3.535-1.47-1.607 0-2.768.65-3.516 1.354l-.064-.625-.046-.45h-4.318l.024.524c.052 1.108.1 2.392.1 3.927v8.931h4.85v-7.639c0-.352.03-.62.091-.772l.003-.006c.235-.595.724-1.124 1.508-1.124.544 0 .868.2 1.08.519.235.352.37.908.37 1.662v7.362H29.4ZM1.5 20C1.5 9.783 9.783 1.5 20 1.5S38.5 9.783 38.5 20 30.217 38.5 20 38.5 1.5 30.217 1.5 20Z" stroke="transparent" fill="#06071B"/><path d="M28.9 20.554v6.821h-2.847v-6.362c0-.842-.144-1.628-.536-2.217-.415-.622-1.065-.964-1.913-.964-1.34 0-2.113.936-2.437 1.754-.143.35-.165.793-.165 1.148v6.64h-2.85v-7.932c0-1.32-.035-2.455-.078-3.45h2.369l.13 1.27.046.45h.805l.147-.235c.44-.7 1.538-1.765 3.4-1.765 1.15 0 2.113.382 2.793 1.139.684.761 1.137 1.963 1.137 3.703ZM14.85 27.375H12V15.993h2.848v11.382ZM13.4 13.473c-.939 0-1.5-.637-1.5-1.425 0-.416.152-.764.406-1.009.255-.245.638-.413 1.144-.413.504 0 .873.167 1.117.409.245.242.397.592.408 1.018-.002.405-.15.752-.403.999s-.64.421-1.172.421Z" stroke="transparent" fill="#06071B"/></symbol></defs></svg>