<svg width="40" height="40" viewBox="0 0 40 40" fill="none" xmlns="http://www.w3.org/2000/svg">
<path d="M24.5006 14.6298H25.0006V14.1298V11.0007V10.5007H24.5006H21.6447C18.9529 10.5007 17.0597 12.797 17.0597 15.4994V16.7292H14.5019H14.0019V17.2292V20.1702V20.6702H14.5019H17.0597V28.9993V29.4993H17.5597H20.9302H21.4302V28.9993V20.6702H23.9623H24.3788L24.4541 20.2606L24.9944 17.3195L25.1028 16.7292H24.5026H21.4302V15.1669C21.4302 14.9752 21.4916 14.8202 21.5633 14.7227C21.6145 14.6531 21.6518 14.6342 21.6612 14.6298H24.5006ZM1.5 20C1.5 9.7826 9.7826 1.5 20 1.5C30.2174 1.5 38.5 9.7826 38.5 20C38.5 30.2174 30.2174 38.5 20 38.5C9.7826 38.5 1.5 30.2174 1.5 20Z" stroke="url(#paint0_linear_325_351)"/>
<defs>
<linearGradient id="paint0_linear_325_351" x1="0.242969" y1="14.7221" x2="34.9947" y2="14.7388" gradientUnits="userSpaceOnUse">
<stop stop-color="#00C5EB"/>
<stop offset="1" stop-color="#B544FE"/>
</linearGradient>
</defs>
</svg>
